<?xml version="1.0" encoding="UTF-8" standalone="no"?><svg xmlns="http://www.w3.org/2000/svg" xmlns:xlink="http://www.w3.org/1999/xlink" contentScriptType="application/ecmascript" contentStyleType="text/css" height="233px" preserveAspectRatio="none" style="width:221px;height:233px;" version="1.1" viewBox="0 0 221 233" width="221px" zoomAndPan="magnify"><defs><filter height="300%" id="fvxq7wp" width="300%" x="-1" y="-1"><feGaussianBlur result="blurOut" stdDeviation="2.0"/><feColorMatrix in="blurOut" result="blurOut2" type="matrix" values="0 0 0 0 0 0 0 0 0 0 0 0 0 0 0 0 0 0 .4 0"/><feOffset dx="4.0" dy="4.0" in="blurOut2" result="blurOut3"/><feBlend in="SourceGraphic" in2="blurOut3" mode="normal"/></filter></defs><g><!--class Term--><rect fill="#FEFECE" filter="url(#fvxq7wp)" height="32" style="stroke: #A80036; stroke-width: 1.5;" width="63" x="78.5" y="8"/><ellipse cx="93.5" cy="24" fill="#B4A7E5" rx="11" ry="11" style="stroke: #A80036; stroke-width: 1.0;"/><path d="M89.4219,19.7656 L89.4219,17.6094 L96.8125,17.6094 L96.8125,19.7656 L94.3438,19.7656 L94.3438,27.8438 L96.8125,27.8438 L96.8125,30 L89.4219,30 L89.4219,27.8438 L91.8906,27.8438 L91.8906,19.7656 L89.4219,19.7656 Z "/><text fill="#000000" font-family="sans-serif" font-size="12" font-style="italic" lengthAdjust="spacingAndGlyphs" textLength="31" x="107.5" y="28.1543">Term</text><!--class Constant--><rect fill="#FEFECE" filter="url(#fvxq7wp)" height="32" style="stroke: #A80036; stroke-width: 1.5;" width="88" x="6" y="100"/><ellipse cx="21" cy="116" fill="#B4A7E5" rx="11" ry="11" style="stroke: #A80036; stroke-width: 1.0;"/><path d="M16.9219,111.7656 L16.9219,109.6094 L24.3125,109.6094 L24.3125,111.7656 L21.8438,111.7656 L21.8438,119.8438 L24.3125,119.8438 L24.3125,122 L16.9219,122 L16.9219,119.8438 L19.3906,119.8438 L19.3906,111.7656 L16.9219,111.7656 Z "/><text fill="#000000" font-family="sans-serif" font-size="12" font-style="italic" lengthAdjust="spacingAndGlyphs" textLength="56" x="35" y="120.1543">Constant</text><!--class Variable--><rect fill="#FEFECE" filter="url(#fvxq7wp)" height="32" style="stroke: #A80036; stroke-width: 1.5;" width="83" x="129.5" y="100"/><ellipse cx="144.5" cy="116" fill="#B4A7E5" rx="11" ry="11" style="stroke: #A80036; stroke-width: 1.0;"/><path d="M140.4219,111.7656 L140.4219,109.6094 L147.8125,109.6094 L147.8125,111.7656 L145.3438,111.7656 L145.3438,119.8438 L147.8125,119.8438 L147.8125,122 L140.4219,122 L140.4219,119.8438 L142.8906,119.8438 L142.8906,111.7656 L140.4219,111.7656 Z "/><text fill="#000000" font-family="sans-serif" font-size="12" font-style="italic" lengthAdjust="spacingAndGlyphs" textLength="51" x="158.5" y="120.1543">Variable</text><!--class Literal--><rect fill="#FEFECE" filter="url(#fvxq7wp)" height="32" style="stroke: #A80036; stroke-width: 1.5;" width="71" x="14.5" y="192"/><ellipse cx="29.5" cy="208" fill="#B4A7E5" rx="11" ry="11" style="stroke: #A80036; stroke-width: 1.0;"/><path d="M25.4219,203.7656 L25.4219,201.6094 L32.8125,201.6094 L32.8125,203.7656 L30.3438,203.7656 L30.3438,211.8438 L32.8125,211.8438 L32.8125,214 L25.4219,214 L25.4219,211.8438 L27.8906,211.8438 L27.8906,203.7656 L25.4219,203.7656 Z "/><text fill="#000000" font-family="sans-serif" font-size="12" font-style="italic" lengthAdjust="spacingAndGlyphs" textLength="39" x="43.5" y="212.1543">Literal</text><path d="M88.5476,57.179 C78.8229,71.766 67.7907,88.314 60.0279,99.958 " fill="none" style="stroke: #A80036; stroke-width: 1.0;"/><polygon fill="none" points="82.9034,53.025,99.8218,40.267,94.5521,60.791,82.9034,53.025" style="stroke: #A80036; stroke-width: 1.0;"/><path d="M131.81,57.179 C141.697,71.766 152.913,88.314 160.805,99.958 " fill="none" style="stroke: #A80036; stroke-width: 1.0;"/><polygon fill="none" points="125.774,60.75,120.348,40.267,137.363,52.896,125.774,60.75" style="stroke: #A80036; stroke-width: 1.0;"/><path d="M50,152.6147 C50,166.3102 50,181.2196 50,191.9582 " fill="none" style="stroke: #A80036; stroke-width: 1.0;"/><polygon fill="none" points="43.0001,152.2673,50,132.2673,57.0001,152.2672,43.0001,152.2673" style="stroke: #A80036; stroke-width: 1.0;"/></g></svg>